M48
; DRILL file {KiCad (5.1.6)-1} date 12/09/20 22:38:31
; FORMAT={3:3/ absolute / metric / keep zeros}
; #@! TF.CreationDate,2020-12-09T22:38:31+13:00
; #@! TF.GenerationSoftware,Kicad,Pcbnew,(5.1.6)-1
FMAT,2
METRIC
T1C0.800
T2C0.900
T3C1.000
T4C1.100
T5C1.500
T6C5.300
%
G90
G05
T1
X021148Y027862
X021148Y025322
X021148Y022782
X021148Y020242
X028768Y027862
X028768Y025322
X028768Y022782
X028768Y020242
X039116Y028448
X039116Y018288
X009144Y028956
X009144Y018796
X023872Y013462
X025872Y013462
X027872Y013462
T2
X038354Y012446
X040894Y012446
T3
X026162Y006096
X026162Y003556
X014478Y008636
X014478Y006096
X014478Y003556
X032512Y003556
X035052Y003556
X012954Y033782
X015494Y033782
X023114Y033528
X025654Y033528
X028194Y033528
X030734Y033528
X032766Y027940
X032766Y025400
X032766Y022860
X032766Y020320
X017272Y027940
X017272Y025400
X017272Y022860
X017272Y020320
X021590Y006096
X021590Y003556
T4
X002540Y016002
X002540Y011502
X009040Y016002
X009040Y011502
T5
X021772Y013462
X029972Y013462
T6
X004064Y004318
X043688Y033782
X043942Y004064
X004064Y033782
T0
M30
