%FSLAX45Y45*%
G04 Gerber Fmt 4.5, Leading zero omitted, Abs format (unit mm)*
G04 Created by KiCad (PCBNEW (5.1.6)-1) date 2020-12-09 22:38:34*
%MOMM*%
%LPD*%
G01*
G04 APERTURE LIST*
%TA.AperFunction,Profile*%
%ADD10C,0.050000*%
%TD*%
%ADD11C,0.200000*%
%ADD12C,0.300000*%
G04 APERTURE END LIST*
D10*
X4775200Y0D02*
X0Y0D01*
X4775200Y3784600D02*
X4775200Y0D01*
X0Y3784600D02*
X4775200Y3784600D01*
X0Y0D02*
X0Y3784600D01*
D11*
X2074800Y2826200D02*
X2154800Y2746200D01*
X2154800Y2826200D02*
X2074800Y2746200D01*
X2074800Y2572200D02*
X2154800Y2492200D01*
X2154800Y2572200D02*
X2074800Y2492200D01*
X2074800Y2318200D02*
X2154800Y2238200D01*
X2154800Y2318200D02*
X2074800Y2238200D01*
X2074800Y2064200D02*
X2154800Y1984200D01*
X2154800Y2064200D02*
X2074800Y1984200D01*
X2836800Y2826200D02*
X2916800Y2746200D01*
X2916800Y2826200D02*
X2836800Y2746200D01*
X2836800Y2572200D02*
X2916800Y2492200D01*
X2916800Y2572200D02*
X2836800Y2492200D01*
X2836800Y2318200D02*
X2916800Y2238200D01*
X2916800Y2318200D02*
X2836800Y2238200D01*
X2836800Y2064200D02*
X2916800Y1984200D01*
X2916800Y2064200D02*
X2836800Y1984200D01*
X3871600Y2884800D02*
X3951600Y2804800D01*
X3951600Y2884800D02*
X3871600Y2804800D01*
X3871600Y1868800D02*
X3951600Y1788800D01*
X3951600Y1868800D02*
X3871600Y1788800D01*
X874400Y2935600D02*
X954400Y2855600D01*
X954400Y2935600D02*
X874400Y2855600D01*
X874400Y1919600D02*
X954400Y1839600D01*
X954400Y1919600D02*
X874400Y1839600D01*
X2347200Y1386200D02*
X2427200Y1306200D01*
X2427200Y1386200D02*
X2347200Y1306200D01*
X2547200Y1386200D02*
X2627200Y1306200D01*
X2627200Y1386200D02*
X2547200Y1306200D01*
X2747200Y1386200D02*
X2827200Y1306200D01*
X2827200Y1386200D02*
X2747200Y1306200D01*
X3880400Y1244600D02*
G75*
G03*
X3880400Y1244600I-45000J0D01*
G01*
X4134400Y1244600D02*
G75*
G03*
X4134400Y1244600I-45000J0D01*
G01*
X2616200Y659600D02*
X2616200Y559600D01*
X2566200Y609600D02*
X2666200Y609600D01*
X2616200Y405600D02*
X2616200Y305600D01*
X2566200Y355600D02*
X2666200Y355600D01*
X1447800Y913600D02*
X1447800Y813600D01*
X1397800Y863600D02*
X1497800Y863600D01*
X1447800Y659600D02*
X1447800Y559600D01*
X1397800Y609600D02*
X1497800Y609600D01*
X1447800Y405600D02*
X1447800Y305600D01*
X1397800Y355600D02*
X1497800Y355600D01*
X3251200Y405600D02*
X3251200Y305600D01*
X3201200Y355600D02*
X3301200Y355600D01*
X3505200Y405600D02*
X3505200Y305600D01*
X3455200Y355600D02*
X3555200Y355600D01*
X1295400Y3428200D02*
X1295400Y3328200D01*
X1245400Y3378200D02*
X1345400Y3378200D01*
X1549400Y3428200D02*
X1549400Y3328200D01*
X1499400Y3378200D02*
X1599400Y3378200D01*
X2311400Y3402800D02*
X2311400Y3302800D01*
X2261400Y3352800D02*
X2361400Y3352800D01*
X2565400Y3402800D02*
X2565400Y3302800D01*
X2515400Y3352800D02*
X2615400Y3352800D01*
X2819400Y3402800D02*
X2819400Y3302800D01*
X2769400Y3352800D02*
X2869400Y3352800D01*
X3073400Y3402800D02*
X3073400Y3302800D01*
X3023400Y3352800D02*
X3123400Y3352800D01*
X3276600Y2844000D02*
X3276600Y2744000D01*
X3226600Y2794000D02*
X3326600Y2794000D01*
X3276600Y2590000D02*
X3276600Y2490000D01*
X3226600Y2540000D02*
X3326600Y2540000D01*
X3276600Y2336000D02*
X3276600Y2236000D01*
X3226600Y2286000D02*
X3326600Y2286000D01*
X3276600Y2082000D02*
X3276600Y1982000D01*
X3226600Y2032000D02*
X3326600Y2032000D01*
X1727200Y2844000D02*
X1727200Y2744000D01*
X1677200Y2794000D02*
X1777200Y2794000D01*
X1727200Y2590000D02*
X1727200Y2490000D01*
X1677200Y2540000D02*
X1777200Y2540000D01*
X1727200Y2336000D02*
X1727200Y2236000D01*
X1677200Y2286000D02*
X1777200Y2286000D01*
X1727200Y2082000D02*
X1727200Y1982000D01*
X1677200Y2032000D02*
X1777200Y2032000D01*
X2159000Y659600D02*
X2159000Y559600D01*
X2109000Y609600D02*
X2209000Y609600D01*
X2159000Y405600D02*
X2159000Y305600D01*
X2109000Y355600D02*
X2209000Y355600D01*
X292891Y1561309D02*
X292891Y1639091D01*
X215109Y1639091D01*
X215109Y1561309D01*
X292891Y1561309D01*
X292891Y1111309D02*
X292891Y1189091D01*
X215109Y1189091D01*
X215109Y1111309D01*
X292891Y1111309D01*
X942891Y1561309D02*
X942891Y1639091D01*
X865109Y1639091D01*
X865109Y1561309D01*
X942891Y1561309D01*
X942891Y1111309D02*
X942891Y1189091D01*
X865109Y1189091D01*
X865109Y1111309D01*
X942891Y1111309D01*
X2177200Y1271200D02*
X2252200Y1346200D01*
X2177200Y1421200D01*
X2102200Y1346200D01*
X2177200Y1271200D01*
X2997200Y1271200D02*
X3072200Y1346200D01*
X2997200Y1421200D01*
X2922200Y1346200D01*
X2997200Y1271200D01*
X141400Y696800D02*
X671400Y166800D01*
X671400Y696800D02*
X141400Y166800D01*
X671400Y431800D02*
G75*
G03*
X671400Y431800I-265000J0D01*
G01*
X4103800Y3643200D02*
X4633800Y3113200D01*
X4633800Y3643200D02*
X4103800Y3113200D01*
X4633800Y3378200D02*
G75*
G03*
X4633800Y3378200I-265000J0D01*
G01*
X4129200Y671400D02*
X4659200Y141400D01*
X4659200Y671400D02*
X4129200Y141400D01*
X4659200Y406400D02*
G75*
G03*
X4659200Y406400I-265000J0D01*
G01*
X141400Y3643200D02*
X671400Y3113200D01*
X671400Y3643200D02*
X141400Y3113200D01*
X671400Y3378200D02*
G75*
G03*
X671400Y3378200I-265000J0D01*
G01*
D12*
X283928Y-468214D02*
X283928Y-168214D01*
X355357Y-168214D01*
X398214Y-182500D01*
X426786Y-211071D01*
X441071Y-239643D01*
X455357Y-296786D01*
X455357Y-339643D01*
X441071Y-396786D01*
X426786Y-425357D01*
X398214Y-453929D01*
X355357Y-468214D01*
X283928Y-468214D01*
X583928Y-468214D02*
X583928Y-268214D01*
X583928Y-325357D02*
X598214Y-296786D01*
X612500Y-282500D01*
X641071Y-268214D01*
X669643Y-268214D01*
X769643Y-468214D02*
X769643Y-268214D01*
X769643Y-168214D02*
X755357Y-182500D01*
X769643Y-196786D01*
X783928Y-182500D01*
X769643Y-168214D01*
X769643Y-196786D01*
X955357Y-468214D02*
X926786Y-453929D01*
X912500Y-425357D01*
X912500Y-168214D01*
X1112500Y-468214D02*
X1083928Y-453929D01*
X1069643Y-425357D01*
X1069643Y-168214D01*
X1455357Y-468214D02*
X1455357Y-168214D01*
X1555357Y-382500D01*
X1655357Y-168214D01*
X1655357Y-468214D01*
X1926786Y-468214D02*
X1926786Y-311072D01*
X1912500Y-282500D01*
X1883928Y-268214D01*
X1826786Y-268214D01*
X1798214Y-282500D01*
X1926786Y-453929D02*
X1898214Y-468214D01*
X1826786Y-468214D01*
X1798214Y-453929D01*
X1783928Y-425357D01*
X1783928Y-396786D01*
X1798214Y-368214D01*
X1826786Y-353929D01*
X1898214Y-353929D01*
X1926786Y-339643D01*
X2069643Y-268214D02*
X2069643Y-568214D01*
X2069643Y-282500D02*
X2098214Y-268214D01*
X2155357Y-268214D01*
X2183928Y-282500D01*
X2198214Y-296786D01*
X2212500Y-325357D01*
X2212500Y-411071D01*
X2198214Y-439643D01*
X2183928Y-453929D01*
X2155357Y-468214D01*
X2098214Y-468214D01*
X2069643Y-453929D01*
X2341071Y-439643D02*
X2355357Y-453929D01*
X2341071Y-468214D01*
X2326786Y-453929D01*
X2341071Y-439643D01*
X2341071Y-468214D01*
X2341071Y-282500D02*
X2355357Y-296786D01*
X2341071Y-311072D01*
X2326786Y-296786D01*
X2341071Y-282500D01*
X2341071Y-311072D01*
X-82500Y-922500D02*
X-2500Y-1002500D01*
X-2500Y-922500D02*
X-82500Y-1002500D01*
X341071Y-798214D02*
X369643Y-798214D01*
X398214Y-812500D01*
X412500Y-826786D01*
X426786Y-855357D01*
X441071Y-912500D01*
X441071Y-983929D01*
X426786Y-1041071D01*
X412500Y-1069643D01*
X398214Y-1083929D01*
X369643Y-1098214D01*
X341071Y-1098214D01*
X312500Y-1083929D01*
X298214Y-1069643D01*
X283928Y-1041071D01*
X269643Y-983929D01*
X269643Y-912500D01*
X283928Y-855357D01*
X298214Y-826786D01*
X312500Y-812500D01*
X341071Y-798214D01*
X569643Y-1069643D02*
X583928Y-1083929D01*
X569643Y-1098214D01*
X555357Y-1083929D01*
X569643Y-1069643D01*
X569643Y-1098214D01*
X755357Y-926786D02*
X726786Y-912500D01*
X712500Y-898214D01*
X698214Y-869643D01*
X698214Y-855357D01*
X712500Y-826786D01*
X726786Y-812500D01*
X755357Y-798214D01*
X812500Y-798214D01*
X841071Y-812500D01*
X855357Y-826786D01*
X869643Y-855357D01*
X869643Y-869643D01*
X855357Y-898214D01*
X841071Y-912500D01*
X812500Y-926786D01*
X755357Y-926786D01*
X726786Y-941071D01*
X712500Y-955357D01*
X698214Y-983929D01*
X698214Y-1041071D01*
X712500Y-1069643D01*
X726786Y-1083929D01*
X755357Y-1098214D01*
X812500Y-1098214D01*
X841071Y-1083929D01*
X855357Y-1069643D01*
X869643Y-1041071D01*
X869643Y-983929D01*
X855357Y-955357D01*
X841071Y-941071D01*
X812500Y-926786D01*
X1055357Y-798214D02*
X1083928Y-798214D01*
X1112500Y-812500D01*
X1126786Y-826786D01*
X1141071Y-855357D01*
X1155357Y-912500D01*
X1155357Y-983929D01*
X1141071Y-1041071D01*
X1126786Y-1069643D01*
X1112500Y-1083929D01*
X1083928Y-1098214D01*
X1055357Y-1098214D01*
X1026786Y-1083929D01*
X1012500Y-1069643D01*
X998214Y-1041071D01*
X983928Y-983929D01*
X983928Y-912500D01*
X998214Y-855357D01*
X1012500Y-826786D01*
X1026786Y-812500D01*
X1055357Y-798214D01*
X1283928Y-1098214D02*
X1283928Y-898214D01*
X1283928Y-926786D02*
X1298214Y-912500D01*
X1326786Y-898214D01*
X1369643Y-898214D01*
X1398214Y-912500D01*
X1412500Y-941071D01*
X1412500Y-1098214D01*
X1412500Y-941071D02*
X1426786Y-912500D01*
X1455357Y-898214D01*
X1498214Y-898214D01*
X1526786Y-912500D01*
X1541071Y-941071D01*
X1541071Y-1098214D01*
X1683928Y-1098214D02*
X1683928Y-898214D01*
X1683928Y-926786D02*
X1698214Y-912500D01*
X1726786Y-898214D01*
X1769643Y-898214D01*
X1798214Y-912500D01*
X1812500Y-941071D01*
X1812500Y-1098214D01*
X1812500Y-941071D02*
X1826786Y-912500D01*
X1855357Y-898214D01*
X1898214Y-898214D01*
X1926786Y-912500D01*
X1941071Y-941071D01*
X1941071Y-1098214D01*
X2526786Y-783929D02*
X2269643Y-1169643D01*
X2912500Y-798214D02*
X2941071Y-798214D01*
X2969643Y-812500D01*
X2983928Y-826786D01*
X2998214Y-855357D01*
X3012500Y-912500D01*
X3012500Y-983929D01*
X2998214Y-1041071D01*
X2983928Y-1069643D01*
X2969643Y-1083929D01*
X2941071Y-1098214D01*
X2912500Y-1098214D01*
X2883928Y-1083929D01*
X2869643Y-1069643D01*
X2855357Y-1041071D01*
X2841071Y-983929D01*
X2841071Y-912500D01*
X2855357Y-855357D01*
X2869643Y-826786D01*
X2883928Y-812500D01*
X2912500Y-798214D01*
X3141071Y-1069643D02*
X3155357Y-1083929D01*
X3141071Y-1098214D01*
X3126786Y-1083929D01*
X3141071Y-1069643D01*
X3141071Y-1098214D01*
X3341071Y-798214D02*
X3369643Y-798214D01*
X3398214Y-812500D01*
X3412500Y-826786D01*
X3426786Y-855357D01*
X3441071Y-912500D01*
X3441071Y-983929D01*
X3426786Y-1041071D01*
X3412500Y-1069643D01*
X3398214Y-1083929D01*
X3369643Y-1098214D01*
X3341071Y-1098214D01*
X3312500Y-1083929D01*
X3298214Y-1069643D01*
X3283928Y-1041071D01*
X3269643Y-983929D01*
X3269643Y-912500D01*
X3283928Y-855357D01*
X3298214Y-826786D01*
X3312500Y-812500D01*
X3341071Y-798214D01*
X3541071Y-798214D02*
X3726786Y-798214D01*
X3626786Y-912500D01*
X3669643Y-912500D01*
X3698214Y-926786D01*
X3712500Y-941071D01*
X3726786Y-969643D01*
X3726786Y-1041071D01*
X3712500Y-1069643D01*
X3698214Y-1083929D01*
X3669643Y-1098214D01*
X3583928Y-1098214D01*
X3555357Y-1083929D01*
X3541071Y-1069643D01*
X4012500Y-1098214D02*
X3841071Y-1098214D01*
X3926786Y-1098214D02*
X3926786Y-798214D01*
X3898214Y-841071D01*
X3869643Y-869643D01*
X3841071Y-883929D01*
X4126786Y-798214D02*
X4126786Y-855357D01*
X4241071Y-798214D02*
X4241071Y-855357D01*
X4683928Y-1212500D02*
X4669643Y-1198214D01*
X4641071Y-1155357D01*
X4626786Y-1126786D01*
X4612500Y-1083929D01*
X4598214Y-1012500D01*
X4598214Y-955357D01*
X4612500Y-883929D01*
X4626786Y-841071D01*
X4641071Y-812500D01*
X4669643Y-769643D01*
X4683928Y-755357D01*
X4955357Y-1098214D02*
X4783928Y-1098214D01*
X4869643Y-1098214D02*
X4869643Y-798214D01*
X4841071Y-841071D01*
X4812500Y-869643D01*
X4783928Y-883929D01*
X5226786Y-798214D02*
X5083928Y-798214D01*
X5069643Y-941071D01*
X5083928Y-926786D01*
X5112500Y-912500D01*
X5183928Y-912500D01*
X5212500Y-926786D01*
X5226786Y-941071D01*
X5241071Y-969643D01*
X5241071Y-1041071D01*
X5226786Y-1069643D01*
X5212500Y-1083929D01*
X5183928Y-1098214D01*
X5112500Y-1098214D01*
X5083928Y-1083929D01*
X5069643Y-1069643D01*
X5598214Y-1098214D02*
X5598214Y-798214D01*
X5726786Y-1098214D02*
X5726786Y-941071D01*
X5712500Y-912500D01*
X5683928Y-898214D01*
X5641071Y-898214D01*
X5612500Y-912500D01*
X5598214Y-926786D01*
X5912500Y-1098214D02*
X5883928Y-1083929D01*
X5869643Y-1069643D01*
X5855357Y-1041071D01*
X5855357Y-955357D01*
X5869643Y-926786D01*
X5883928Y-912500D01*
X5912500Y-898214D01*
X5955357Y-898214D01*
X5983928Y-912500D01*
X5998214Y-926786D01*
X6012500Y-955357D01*
X6012500Y-1041071D01*
X5998214Y-1069643D01*
X5983928Y-1083929D01*
X5955357Y-1098214D01*
X5912500Y-1098214D01*
X6183928Y-1098214D02*
X6155357Y-1083929D01*
X6141071Y-1055357D01*
X6141071Y-798214D01*
X6412500Y-1083929D02*
X6383928Y-1098214D01*
X6326786Y-1098214D01*
X6298214Y-1083929D01*
X6283928Y-1055357D01*
X6283928Y-941071D01*
X6298214Y-912500D01*
X6326786Y-898214D01*
X6383928Y-898214D01*
X6412500Y-912500D01*
X6426786Y-941071D01*
X6426786Y-969643D01*
X6283928Y-998214D01*
X6541071Y-1083929D02*
X6569643Y-1098214D01*
X6626786Y-1098214D01*
X6655357Y-1083929D01*
X6669643Y-1055357D01*
X6669643Y-1041071D01*
X6655357Y-1012500D01*
X6626786Y-998214D01*
X6583928Y-998214D01*
X6555357Y-983929D01*
X6541071Y-955357D01*
X6541071Y-941071D01*
X6555357Y-912500D01*
X6583928Y-898214D01*
X6626786Y-898214D01*
X6655357Y-912500D01*
X6769643Y-1212500D02*
X6783928Y-1198214D01*
X6812500Y-1155357D01*
X6826786Y-1126786D01*
X6841071Y-1083929D01*
X6855357Y-1012500D01*
X6855357Y-955357D01*
X6841071Y-883929D01*
X6826786Y-841071D01*
X6812500Y-812500D01*
X6783928Y-769643D01*
X6769643Y-755357D01*
X-2500Y-1358500D02*
G75*
G03*
X-2500Y-1358500I-45000J0D01*
G01*
X341071Y-1194214D02*
X369643Y-1194214D01*
X398214Y-1208500D01*
X412500Y-1222786D01*
X426786Y-1251357D01*
X441071Y-1308500D01*
X441071Y-1379929D01*
X426786Y-1437071D01*
X412500Y-1465643D01*
X398214Y-1479929D01*
X369643Y-1494214D01*
X341071Y-1494214D01*
X312500Y-1479929D01*
X298214Y-1465643D01*
X283928Y-1437071D01*
X269643Y-1379929D01*
X269643Y-1308500D01*
X283928Y-1251357D01*
X298214Y-1222786D01*
X312500Y-1208500D01*
X341071Y-1194214D01*
X569643Y-1465643D02*
X583928Y-1479929D01*
X569643Y-1494214D01*
X555357Y-1479929D01*
X569643Y-1465643D01*
X569643Y-1494214D01*
X726786Y-1494214D02*
X783928Y-1494214D01*
X812500Y-1479929D01*
X826786Y-1465643D01*
X855357Y-1422786D01*
X869643Y-1365643D01*
X869643Y-1251357D01*
X855357Y-1222786D01*
X841071Y-1208500D01*
X812500Y-1194214D01*
X755357Y-1194214D01*
X726786Y-1208500D01*
X712500Y-1222786D01*
X698214Y-1251357D01*
X698214Y-1322786D01*
X712500Y-1351357D01*
X726786Y-1365643D01*
X755357Y-1379929D01*
X812500Y-1379929D01*
X841071Y-1365643D01*
X855357Y-1351357D01*
X869643Y-1322786D01*
X1055357Y-1194214D02*
X1083928Y-1194214D01*
X1112500Y-1208500D01*
X1126786Y-1222786D01*
X1141071Y-1251357D01*
X1155357Y-1308500D01*
X1155357Y-1379929D01*
X1141071Y-1437071D01*
X1126786Y-1465643D01*
X1112500Y-1479929D01*
X1083928Y-1494214D01*
X1055357Y-1494214D01*
X1026786Y-1479929D01*
X1012500Y-1465643D01*
X998214Y-1437071D01*
X983928Y-1379929D01*
X983928Y-1308500D01*
X998214Y-1251357D01*
X1012500Y-1222786D01*
X1026786Y-1208500D01*
X1055357Y-1194214D01*
X1283928Y-1494214D02*
X1283928Y-1294214D01*
X1283928Y-1322786D02*
X1298214Y-1308500D01*
X1326786Y-1294214D01*
X1369643Y-1294214D01*
X1398214Y-1308500D01*
X1412500Y-1337072D01*
X1412500Y-1494214D01*
X1412500Y-1337072D02*
X1426786Y-1308500D01*
X1455357Y-1294214D01*
X1498214Y-1294214D01*
X1526786Y-1308500D01*
X1541071Y-1337072D01*
X1541071Y-1494214D01*
X1683928Y-1494214D02*
X1683928Y-1294214D01*
X1683928Y-1322786D02*
X1698214Y-1308500D01*
X1726786Y-1294214D01*
X1769643Y-1294214D01*
X1798214Y-1308500D01*
X1812500Y-1337072D01*
X1812500Y-1494214D01*
X1812500Y-1337072D02*
X1826786Y-1308500D01*
X1855357Y-1294214D01*
X1898214Y-1294214D01*
X1926786Y-1308500D01*
X1941071Y-1337072D01*
X1941071Y-1494214D01*
X2526786Y-1179929D02*
X2269643Y-1565643D01*
X2912500Y-1194214D02*
X2941071Y-1194214D01*
X2969643Y-1208500D01*
X2983928Y-1222786D01*
X2998214Y-1251357D01*
X3012500Y-1308500D01*
X3012500Y-1379929D01*
X2998214Y-1437071D01*
X2983928Y-1465643D01*
X2969643Y-1479929D01*
X2941071Y-1494214D01*
X2912500Y-1494214D01*
X2883928Y-1479929D01*
X2869643Y-1465643D01*
X2855357Y-1437071D01*
X2841071Y-1379929D01*
X2841071Y-1308500D01*
X2855357Y-1251357D01*
X2869643Y-1222786D01*
X2883928Y-1208500D01*
X2912500Y-1194214D01*
X3141071Y-1465643D02*
X3155357Y-1479929D01*
X3141071Y-1494214D01*
X3126786Y-1479929D01*
X3141071Y-1465643D01*
X3141071Y-1494214D01*
X3341071Y-1194214D02*
X3369643Y-1194214D01*
X3398214Y-1208500D01*
X3412500Y-1222786D01*
X3426786Y-1251357D01*
X3441071Y-1308500D01*
X3441071Y-1379929D01*
X3426786Y-1437071D01*
X3412500Y-1465643D01*
X3398214Y-1479929D01*
X3369643Y-1494214D01*
X3341071Y-1494214D01*
X3312500Y-1479929D01*
X3298214Y-1465643D01*
X3283928Y-1437071D01*
X3269643Y-1379929D01*
X3269643Y-1308500D01*
X3283928Y-1251357D01*
X3298214Y-1222786D01*
X3312500Y-1208500D01*
X3341071Y-1194214D01*
X3541071Y-1194214D02*
X3726786Y-1194214D01*
X3626786Y-1308500D01*
X3669643Y-1308500D01*
X3698214Y-1322786D01*
X3712500Y-1337072D01*
X3726786Y-1365643D01*
X3726786Y-1437071D01*
X3712500Y-1465643D01*
X3698214Y-1479929D01*
X3669643Y-1494214D01*
X3583928Y-1494214D01*
X3555357Y-1479929D01*
X3541071Y-1465643D01*
X3998214Y-1194214D02*
X3855357Y-1194214D01*
X3841071Y-1337072D01*
X3855357Y-1322786D01*
X3883928Y-1308500D01*
X3955357Y-1308500D01*
X3983928Y-1322786D01*
X3998214Y-1337072D01*
X4012500Y-1365643D01*
X4012500Y-1437071D01*
X3998214Y-1465643D01*
X3983928Y-1479929D01*
X3955357Y-1494214D01*
X3883928Y-1494214D01*
X3855357Y-1479929D01*
X3841071Y-1465643D01*
X4126786Y-1194214D02*
X4126786Y-1251357D01*
X4241071Y-1194214D02*
X4241071Y-1251357D01*
X4683928Y-1608500D02*
X4669643Y-1594214D01*
X4641071Y-1551357D01*
X4626786Y-1522786D01*
X4612500Y-1479929D01*
X4598214Y-1408500D01*
X4598214Y-1351357D01*
X4612500Y-1279929D01*
X4626786Y-1237072D01*
X4641071Y-1208500D01*
X4669643Y-1165643D01*
X4683928Y-1151357D01*
X4783928Y-1222786D02*
X4798214Y-1208500D01*
X4826786Y-1194214D01*
X4898214Y-1194214D01*
X4926786Y-1208500D01*
X4941071Y-1222786D01*
X4955357Y-1251357D01*
X4955357Y-1279929D01*
X4941071Y-1322786D01*
X4769643Y-1494214D01*
X4955357Y-1494214D01*
X5312500Y-1494214D02*
X5312500Y-1194214D01*
X5441071Y-1494214D02*
X5441071Y-1337072D01*
X5426786Y-1308500D01*
X5398214Y-1294214D01*
X5355357Y-1294214D01*
X5326786Y-1308500D01*
X5312500Y-1322786D01*
X5626786Y-1494214D02*
X5598214Y-1479929D01*
X5583928Y-1465643D01*
X5569643Y-1437071D01*
X5569643Y-1351357D01*
X5583928Y-1322786D01*
X5598214Y-1308500D01*
X5626786Y-1294214D01*
X5669643Y-1294214D01*
X5698214Y-1308500D01*
X5712500Y-1322786D01*
X5726786Y-1351357D01*
X5726786Y-1437071D01*
X5712500Y-1465643D01*
X5698214Y-1479929D01*
X5669643Y-1494214D01*
X5626786Y-1494214D01*
X5898214Y-1494214D02*
X5869643Y-1479929D01*
X5855357Y-1451357D01*
X5855357Y-1194214D01*
X6126786Y-1479929D02*
X6098214Y-1494214D01*
X6041071Y-1494214D01*
X6012500Y-1479929D01*
X5998214Y-1451357D01*
X5998214Y-1337072D01*
X6012500Y-1308500D01*
X6041071Y-1294214D01*
X6098214Y-1294214D01*
X6126786Y-1308500D01*
X6141071Y-1337072D01*
X6141071Y-1365643D01*
X5998214Y-1394214D01*
X6255357Y-1479929D02*
X6283928Y-1494214D01*
X6341071Y-1494214D01*
X6369643Y-1479929D01*
X6383928Y-1451357D01*
X6383928Y-1437071D01*
X6369643Y-1408500D01*
X6341071Y-1394214D01*
X6298214Y-1394214D01*
X6269643Y-1379929D01*
X6255357Y-1351357D01*
X6255357Y-1337072D01*
X6269643Y-1308500D01*
X6298214Y-1294214D01*
X6341071Y-1294214D01*
X6369643Y-1308500D01*
X6483928Y-1608500D02*
X6498214Y-1594214D01*
X6526786Y-1551357D01*
X6541071Y-1522786D01*
X6555357Y-1479929D01*
X6569643Y-1408500D01*
X6569643Y-1351357D01*
X6555357Y-1279929D01*
X6541071Y-1237072D01*
X6526786Y-1208500D01*
X6498214Y-1165643D01*
X6483928Y-1151357D01*
X-52500Y-1704500D02*
X-52500Y-1804500D01*
X-102500Y-1754500D02*
X-2500Y-1754500D01*
X441071Y-1890214D02*
X269643Y-1890214D01*
X355357Y-1890214D02*
X355357Y-1590214D01*
X326786Y-1633071D01*
X298214Y-1661643D01*
X269643Y-1675929D01*
X569643Y-1861643D02*
X583928Y-1875929D01*
X569643Y-1890214D01*
X555357Y-1875929D01*
X569643Y-1861643D01*
X569643Y-1890214D01*
X769643Y-1590214D02*
X798214Y-1590214D01*
X826786Y-1604500D01*
X841071Y-1618786D01*
X855357Y-1647357D01*
X869643Y-1704500D01*
X869643Y-1775929D01*
X855357Y-1833071D01*
X841071Y-1861643D01*
X826786Y-1875929D01*
X798214Y-1890214D01*
X769643Y-1890214D01*
X741071Y-1875929D01*
X726786Y-1861643D01*
X712500Y-1833071D01*
X698214Y-1775929D01*
X698214Y-1704500D01*
X712500Y-1647357D01*
X726786Y-1618786D01*
X741071Y-1604500D01*
X769643Y-1590214D01*
X1055357Y-1590214D02*
X1083928Y-1590214D01*
X1112500Y-1604500D01*
X1126786Y-1618786D01*
X1141071Y-1647357D01*
X1155357Y-1704500D01*
X1155357Y-1775929D01*
X1141071Y-1833071D01*
X1126786Y-1861643D01*
X1112500Y-1875929D01*
X1083928Y-1890214D01*
X1055357Y-1890214D01*
X1026786Y-1875929D01*
X1012500Y-1861643D01*
X998214Y-1833071D01*
X983928Y-1775929D01*
X983928Y-1704500D01*
X998214Y-1647357D01*
X1012500Y-1618786D01*
X1026786Y-1604500D01*
X1055357Y-1590214D01*
X1283928Y-1890214D02*
X1283928Y-1690214D01*
X1283928Y-1718786D02*
X1298214Y-1704500D01*
X1326786Y-1690214D01*
X1369643Y-1690214D01*
X1398214Y-1704500D01*
X1412500Y-1733071D01*
X1412500Y-1890214D01*
X1412500Y-1733071D02*
X1426786Y-1704500D01*
X1455357Y-1690214D01*
X1498214Y-1690214D01*
X1526786Y-1704500D01*
X1541071Y-1733071D01*
X1541071Y-1890214D01*
X1683928Y-1890214D02*
X1683928Y-1690214D01*
X1683928Y-1718786D02*
X1698214Y-1704500D01*
X1726786Y-1690214D01*
X1769643Y-1690214D01*
X1798214Y-1704500D01*
X1812500Y-1733071D01*
X1812500Y-1890214D01*
X1812500Y-1733071D02*
X1826786Y-1704500D01*
X1855357Y-1690214D01*
X1898214Y-1690214D01*
X1926786Y-1704500D01*
X1941071Y-1733071D01*
X1941071Y-1890214D01*
X2526786Y-1575929D02*
X2269643Y-1961643D01*
X2912500Y-1590214D02*
X2941071Y-1590214D01*
X2969643Y-1604500D01*
X2983928Y-1618786D01*
X2998214Y-1647357D01*
X3012500Y-1704500D01*
X3012500Y-1775929D01*
X2998214Y-1833071D01*
X2983928Y-1861643D01*
X2969643Y-1875929D01*
X2941071Y-1890214D01*
X2912500Y-1890214D01*
X2883928Y-1875929D01*
X2869643Y-1861643D01*
X2855357Y-1833071D01*
X2841071Y-1775929D01*
X2841071Y-1704500D01*
X2855357Y-1647357D01*
X2869643Y-1618786D01*
X2883928Y-1604500D01*
X2912500Y-1590214D01*
X3141071Y-1861643D02*
X3155357Y-1875929D01*
X3141071Y-1890214D01*
X3126786Y-1875929D01*
X3141071Y-1861643D01*
X3141071Y-1890214D01*
X3341071Y-1590214D02*
X3369643Y-1590214D01*
X3398214Y-1604500D01*
X3412500Y-1618786D01*
X3426786Y-1647357D01*
X3441071Y-1704500D01*
X3441071Y-1775929D01*
X3426786Y-1833071D01*
X3412500Y-1861643D01*
X3398214Y-1875929D01*
X3369643Y-1890214D01*
X3341071Y-1890214D01*
X3312500Y-1875929D01*
X3298214Y-1861643D01*
X3283928Y-1833071D01*
X3269643Y-1775929D01*
X3269643Y-1704500D01*
X3283928Y-1647357D01*
X3298214Y-1618786D01*
X3312500Y-1604500D01*
X3341071Y-1590214D01*
X3541071Y-1590214D02*
X3726786Y-1590214D01*
X3626786Y-1704500D01*
X3669643Y-1704500D01*
X3698214Y-1718786D01*
X3712500Y-1733071D01*
X3726786Y-1761643D01*
X3726786Y-1833071D01*
X3712500Y-1861643D01*
X3698214Y-1875929D01*
X3669643Y-1890214D01*
X3583928Y-1890214D01*
X3555357Y-1875929D01*
X3541071Y-1861643D01*
X3869643Y-1890214D02*
X3926786Y-1890214D01*
X3955357Y-1875929D01*
X3969643Y-1861643D01*
X3998214Y-1818786D01*
X4012500Y-1761643D01*
X4012500Y-1647357D01*
X3998214Y-1618786D01*
X3983928Y-1604500D01*
X3955357Y-1590214D01*
X3898214Y-1590214D01*
X3869643Y-1604500D01*
X3855357Y-1618786D01*
X3841071Y-1647357D01*
X3841071Y-1718786D01*
X3855357Y-1747357D01*
X3869643Y-1761643D01*
X3898214Y-1775929D01*
X3955357Y-1775929D01*
X3983928Y-1761643D01*
X3998214Y-1747357D01*
X4012500Y-1718786D01*
X4126786Y-1590214D02*
X4126786Y-1647357D01*
X4241071Y-1590214D02*
X4241071Y-1647357D01*
X4683928Y-2004500D02*
X4669643Y-1990214D01*
X4641071Y-1947357D01*
X4626786Y-1918786D01*
X4612500Y-1875929D01*
X4598214Y-1804500D01*
X4598214Y-1747357D01*
X4612500Y-1675929D01*
X4626786Y-1633071D01*
X4641071Y-1604500D01*
X4669643Y-1561643D01*
X4683928Y-1547357D01*
X4783928Y-1618786D02*
X4798214Y-1604500D01*
X4826786Y-1590214D01*
X4898214Y-1590214D01*
X4926786Y-1604500D01*
X4941071Y-1618786D01*
X4955357Y-1647357D01*
X4955357Y-1675929D01*
X4941071Y-1718786D01*
X4769643Y-1890214D01*
X4955357Y-1890214D01*
X5055357Y-1590214D02*
X5241071Y-1590214D01*
X5141071Y-1704500D01*
X5183928Y-1704500D01*
X5212500Y-1718786D01*
X5226786Y-1733071D01*
X5241071Y-1761643D01*
X5241071Y-1833071D01*
X5226786Y-1861643D01*
X5212500Y-1875929D01*
X5183928Y-1890214D01*
X5098214Y-1890214D01*
X5069643Y-1875929D01*
X5055357Y-1861643D01*
X5598214Y-1890214D02*
X5598214Y-1590214D01*
X5726786Y-1890214D02*
X5726786Y-1733071D01*
X5712500Y-1704500D01*
X5683928Y-1690214D01*
X5641071Y-1690214D01*
X5612500Y-1704500D01*
X5598214Y-1718786D01*
X5912500Y-1890214D02*
X5883928Y-1875929D01*
X5869643Y-1861643D01*
X5855357Y-1833071D01*
X5855357Y-1747357D01*
X5869643Y-1718786D01*
X5883928Y-1704500D01*
X5912500Y-1690214D01*
X5955357Y-1690214D01*
X5983928Y-1704500D01*
X5998214Y-1718786D01*
X6012500Y-1747357D01*
X6012500Y-1833071D01*
X5998214Y-1861643D01*
X5983928Y-1875929D01*
X5955357Y-1890214D01*
X5912500Y-1890214D01*
X6183928Y-1890214D02*
X6155357Y-1875929D01*
X6141071Y-1847357D01*
X6141071Y-1590214D01*
X6412500Y-1875929D02*
X6383928Y-1890214D01*
X6326786Y-1890214D01*
X6298214Y-1875929D01*
X6283928Y-1847357D01*
X6283928Y-1733071D01*
X6298214Y-1704500D01*
X6326786Y-1690214D01*
X6383928Y-1690214D01*
X6412500Y-1704500D01*
X6426786Y-1733071D01*
X6426786Y-1761643D01*
X6283928Y-1790214D01*
X6541071Y-1875929D02*
X6569643Y-1890214D01*
X6626786Y-1890214D01*
X6655357Y-1875929D01*
X6669643Y-1847357D01*
X6669643Y-1833071D01*
X6655357Y-1804500D01*
X6626786Y-1790214D01*
X6583928Y-1790214D01*
X6555357Y-1775929D01*
X6541071Y-1747357D01*
X6541071Y-1733071D01*
X6555357Y-1704500D01*
X6583928Y-1690214D01*
X6626786Y-1690214D01*
X6655357Y-1704500D01*
X6769643Y-2004500D02*
X6783928Y-1990214D01*
X6812500Y-1947357D01*
X6826786Y-1918786D01*
X6841071Y-1875929D01*
X6855357Y-1804500D01*
X6855357Y-1747357D01*
X6841071Y-1675929D01*
X6826786Y-1633071D01*
X6812500Y-1604500D01*
X6783928Y-1561643D01*
X6769643Y-1547357D01*
X-18609Y-2189391D02*
X-18609Y-2111609D01*
X-96391Y-2111609D01*
X-96391Y-2189391D01*
X-18609Y-2189391D01*
X441071Y-2286214D02*
X269643Y-2286214D01*
X355357Y-2286214D02*
X355357Y-1986214D01*
X326786Y-2029071D01*
X298214Y-2057643D01*
X269643Y-2071929D01*
X569643Y-2257643D02*
X583928Y-2271929D01*
X569643Y-2286214D01*
X555357Y-2271929D01*
X569643Y-2257643D01*
X569643Y-2286214D01*
X869643Y-2286214D02*
X698214Y-2286214D01*
X783928Y-2286214D02*
X783928Y-1986214D01*
X755357Y-2029071D01*
X726786Y-2057643D01*
X698214Y-2071929D01*
X1055357Y-1986214D02*
X1083928Y-1986214D01*
X1112500Y-2000500D01*
X1126786Y-2014786D01*
X1141071Y-2043357D01*
X1155357Y-2100500D01*
X1155357Y-2171929D01*
X1141071Y-2229072D01*
X1126786Y-2257643D01*
X1112500Y-2271929D01*
X1083928Y-2286214D01*
X1055357Y-2286214D01*
X1026786Y-2271929D01*
X1012500Y-2257643D01*
X998214Y-2229072D01*
X983928Y-2171929D01*
X983928Y-2100500D01*
X998214Y-2043357D01*
X1012500Y-2014786D01*
X1026786Y-2000500D01*
X1055357Y-1986214D01*
X1283928Y-2286214D02*
X1283928Y-2086214D01*
X1283928Y-2114786D02*
X1298214Y-2100500D01*
X1326786Y-2086214D01*
X1369643Y-2086214D01*
X1398214Y-2100500D01*
X1412500Y-2129072D01*
X1412500Y-2286214D01*
X1412500Y-2129072D02*
X1426786Y-2100500D01*
X1455357Y-2086214D01*
X1498214Y-2086214D01*
X1526786Y-2100500D01*
X1541071Y-2129072D01*
X1541071Y-2286214D01*
X1683928Y-2286214D02*
X1683928Y-2086214D01*
X1683928Y-2114786D02*
X1698214Y-2100500D01*
X1726786Y-2086214D01*
X1769643Y-2086214D01*
X1798214Y-2100500D01*
X1812500Y-2129072D01*
X1812500Y-2286214D01*
X1812500Y-2129072D02*
X1826786Y-2100500D01*
X1855357Y-2086214D01*
X1898214Y-2086214D01*
X1926786Y-2100500D01*
X1941071Y-2129072D01*
X1941071Y-2286214D01*
X2526786Y-1971929D02*
X2269643Y-2357643D01*
X2912500Y-1986214D02*
X2941071Y-1986214D01*
X2969643Y-2000500D01*
X2983928Y-2014786D01*
X2998214Y-2043357D01*
X3012500Y-2100500D01*
X3012500Y-2171929D01*
X2998214Y-2229072D01*
X2983928Y-2257643D01*
X2969643Y-2271929D01*
X2941071Y-2286214D01*
X2912500Y-2286214D01*
X2883928Y-2271929D01*
X2869643Y-2257643D01*
X2855357Y-2229072D01*
X2841071Y-2171929D01*
X2841071Y-2100500D01*
X2855357Y-2043357D01*
X2869643Y-2014786D01*
X2883928Y-2000500D01*
X2912500Y-1986214D01*
X3141071Y-2257643D02*
X3155357Y-2271929D01*
X3141071Y-2286214D01*
X3126786Y-2271929D01*
X3141071Y-2257643D01*
X3141071Y-2286214D01*
X3341071Y-1986214D02*
X3369643Y-1986214D01*
X3398214Y-2000500D01*
X3412500Y-2014786D01*
X3426786Y-2043357D01*
X3441071Y-2100500D01*
X3441071Y-2171929D01*
X3426786Y-2229072D01*
X3412500Y-2257643D01*
X3398214Y-2271929D01*
X3369643Y-2286214D01*
X3341071Y-2286214D01*
X3312500Y-2271929D01*
X3298214Y-2257643D01*
X3283928Y-2229072D01*
X3269643Y-2171929D01*
X3269643Y-2100500D01*
X3283928Y-2043357D01*
X3298214Y-2014786D01*
X3312500Y-2000500D01*
X3341071Y-1986214D01*
X3698214Y-2086214D02*
X3698214Y-2286214D01*
X3626786Y-1971929D02*
X3555357Y-2186214D01*
X3741071Y-2186214D01*
X3826786Y-1986214D02*
X4012500Y-1986214D01*
X3912500Y-2100500D01*
X3955357Y-2100500D01*
X3983928Y-2114786D01*
X3998214Y-2129072D01*
X4012500Y-2157643D01*
X4012500Y-2229072D01*
X3998214Y-2257643D01*
X3983928Y-2271929D01*
X3955357Y-2286214D01*
X3869643Y-2286214D01*
X3841071Y-2271929D01*
X3826786Y-2257643D01*
X4126786Y-1986214D02*
X4126786Y-2043357D01*
X4241071Y-1986214D02*
X4241071Y-2043357D01*
X4683928Y-2400500D02*
X4669643Y-2386214D01*
X4641071Y-2343357D01*
X4626786Y-2314786D01*
X4612500Y-2271929D01*
X4598214Y-2200500D01*
X4598214Y-2143357D01*
X4612500Y-2071929D01*
X4626786Y-2029071D01*
X4641071Y-2000500D01*
X4669643Y-1957643D01*
X4683928Y-1943357D01*
X4926786Y-2086214D02*
X4926786Y-2286214D01*
X4855357Y-1971929D02*
X4783928Y-2186214D01*
X4969643Y-2186214D01*
X5312500Y-2286214D02*
X5312500Y-1986214D01*
X5441071Y-2286214D02*
X5441071Y-2129072D01*
X5426786Y-2100500D01*
X5398214Y-2086214D01*
X5355357Y-2086214D01*
X5326786Y-2100500D01*
X5312500Y-2114786D01*
X5626786Y-2286214D02*
X5598214Y-2271929D01*
X5583928Y-2257643D01*
X5569643Y-2229072D01*
X5569643Y-2143357D01*
X5583928Y-2114786D01*
X5598214Y-2100500D01*
X5626786Y-2086214D01*
X5669643Y-2086214D01*
X5698214Y-2100500D01*
X5712500Y-2114786D01*
X5726786Y-2143357D01*
X5726786Y-2229072D01*
X5712500Y-2257643D01*
X5698214Y-2271929D01*
X5669643Y-2286214D01*
X5626786Y-2286214D01*
X5898214Y-2286214D02*
X5869643Y-2271929D01*
X5855357Y-2243357D01*
X5855357Y-1986214D01*
X6126786Y-2271929D02*
X6098214Y-2286214D01*
X6041071Y-2286214D01*
X6012500Y-2271929D01*
X5998214Y-2243357D01*
X5998214Y-2129072D01*
X6012500Y-2100500D01*
X6041071Y-2086214D01*
X6098214Y-2086214D01*
X6126786Y-2100500D01*
X6141071Y-2129072D01*
X6141071Y-2157643D01*
X5998214Y-2186214D01*
X6255357Y-2271929D02*
X6283928Y-2286214D01*
X6341071Y-2286214D01*
X6369643Y-2271929D01*
X6383928Y-2243357D01*
X6383928Y-2229072D01*
X6369643Y-2200500D01*
X6341071Y-2186214D01*
X6298214Y-2186214D01*
X6269643Y-2171929D01*
X6255357Y-2143357D01*
X6255357Y-2129072D01*
X6269643Y-2100500D01*
X6298214Y-2086214D01*
X6341071Y-2086214D01*
X6369643Y-2100500D01*
X6483928Y-2400500D02*
X6498214Y-2386214D01*
X6526786Y-2343357D01*
X6541071Y-2314786D01*
X6555357Y-2271929D01*
X6569643Y-2200500D01*
X6569643Y-2143357D01*
X6555357Y-2071929D01*
X6541071Y-2029071D01*
X6526786Y-2000500D01*
X6498214Y-1957643D01*
X6483928Y-1943357D01*
X-77500Y-2621500D02*
X-2500Y-2546500D01*
X-77500Y-2471500D01*
X-152500Y-2546500D01*
X-77500Y-2621500D01*
X441071Y-2682214D02*
X269643Y-2682214D01*
X355357Y-2682214D02*
X355357Y-2382214D01*
X326786Y-2425072D01*
X298214Y-2453643D01*
X269643Y-2467929D01*
X569643Y-2653643D02*
X583928Y-2667929D01*
X569643Y-2682214D01*
X555357Y-2667929D01*
X569643Y-2653643D01*
X569643Y-2682214D01*
X855357Y-2382214D02*
X712500Y-2382214D01*
X698214Y-2525072D01*
X712500Y-2510786D01*
X741071Y-2496500D01*
X812500Y-2496500D01*
X841071Y-2510786D01*
X855357Y-2525072D01*
X869643Y-2553643D01*
X869643Y-2625072D01*
X855357Y-2653643D01*
X841071Y-2667929D01*
X812500Y-2682214D01*
X741071Y-2682214D01*
X712500Y-2667929D01*
X698214Y-2653643D01*
X1055357Y-2382214D02*
X1083928Y-2382214D01*
X1112500Y-2396500D01*
X1126786Y-2410786D01*
X1141071Y-2439357D01*
X1155357Y-2496500D01*
X1155357Y-2567929D01*
X1141071Y-2625072D01*
X1126786Y-2653643D01*
X1112500Y-2667929D01*
X1083928Y-2682214D01*
X1055357Y-2682214D01*
X1026786Y-2667929D01*
X1012500Y-2653643D01*
X998214Y-2625072D01*
X983928Y-2567929D01*
X983928Y-2496500D01*
X998214Y-2439357D01*
X1012500Y-2410786D01*
X1026786Y-2396500D01*
X1055357Y-2382214D01*
X1283928Y-2682214D02*
X1283928Y-2482214D01*
X1283928Y-2510786D02*
X1298214Y-2496500D01*
X1326786Y-2482214D01*
X1369643Y-2482214D01*
X1398214Y-2496500D01*
X1412500Y-2525072D01*
X1412500Y-2682214D01*
X1412500Y-2525072D02*
X1426786Y-2496500D01*
X1455357Y-2482214D01*
X1498214Y-2482214D01*
X1526786Y-2496500D01*
X1541071Y-2525072D01*
X1541071Y-2682214D01*
X1683928Y-2682214D02*
X1683928Y-2482214D01*
X1683928Y-2510786D02*
X1698214Y-2496500D01*
X1726786Y-2482214D01*
X1769643Y-2482214D01*
X1798214Y-2496500D01*
X1812500Y-2525072D01*
X1812500Y-2682214D01*
X1812500Y-2525072D02*
X1826786Y-2496500D01*
X1855357Y-2482214D01*
X1898214Y-2482214D01*
X1926786Y-2496500D01*
X1941071Y-2525072D01*
X1941071Y-2682214D01*
X2526786Y-2367929D02*
X2269643Y-2753643D01*
X2912500Y-2382214D02*
X2941071Y-2382214D01*
X2969643Y-2396500D01*
X2983928Y-2410786D01*
X2998214Y-2439357D01*
X3012500Y-2496500D01*
X3012500Y-2567929D01*
X2998214Y-2625072D01*
X2983928Y-2653643D01*
X2969643Y-2667929D01*
X2941071Y-2682214D01*
X2912500Y-2682214D01*
X2883928Y-2667929D01*
X2869643Y-2653643D01*
X2855357Y-2625072D01*
X2841071Y-2567929D01*
X2841071Y-2496500D01*
X2855357Y-2439357D01*
X2869643Y-2410786D01*
X2883928Y-2396500D01*
X2912500Y-2382214D01*
X3141071Y-2653643D02*
X3155357Y-2667929D01*
X3141071Y-2682214D01*
X3126786Y-2667929D01*
X3141071Y-2653643D01*
X3141071Y-2682214D01*
X3341071Y-2382214D02*
X3369643Y-2382214D01*
X3398214Y-2396500D01*
X3412500Y-2410786D01*
X3426786Y-2439357D01*
X3441071Y-2496500D01*
X3441071Y-2567929D01*
X3426786Y-2625072D01*
X3412500Y-2653643D01*
X3398214Y-2667929D01*
X3369643Y-2682214D01*
X3341071Y-2682214D01*
X3312500Y-2667929D01*
X3298214Y-2653643D01*
X3283928Y-2625072D01*
X3269643Y-2567929D01*
X3269643Y-2496500D01*
X3283928Y-2439357D01*
X3298214Y-2410786D01*
X3312500Y-2396500D01*
X3341071Y-2382214D01*
X3712500Y-2382214D02*
X3569643Y-2382214D01*
X3555357Y-2525072D01*
X3569643Y-2510786D01*
X3598214Y-2496500D01*
X3669643Y-2496500D01*
X3698214Y-2510786D01*
X3712500Y-2525072D01*
X3726786Y-2553643D01*
X3726786Y-2625072D01*
X3712500Y-2653643D01*
X3698214Y-2667929D01*
X3669643Y-2682214D01*
X3598214Y-2682214D01*
X3569643Y-2667929D01*
X3555357Y-2653643D01*
X3869643Y-2682214D02*
X3926786Y-2682214D01*
X3955357Y-2667929D01*
X3969643Y-2653643D01*
X3998214Y-2610786D01*
X4012500Y-2553643D01*
X4012500Y-2439357D01*
X3998214Y-2410786D01*
X3983928Y-2396500D01*
X3955357Y-2382214D01*
X3898214Y-2382214D01*
X3869643Y-2396500D01*
X3855357Y-2410786D01*
X3841071Y-2439357D01*
X3841071Y-2510786D01*
X3855357Y-2539357D01*
X3869643Y-2553643D01*
X3898214Y-2567929D01*
X3955357Y-2567929D01*
X3983928Y-2553643D01*
X3998214Y-2539357D01*
X4012500Y-2510786D01*
X4126786Y-2382214D02*
X4126786Y-2439357D01*
X4241071Y-2382214D02*
X4241071Y-2439357D01*
X4683928Y-2796500D02*
X4669643Y-2782214D01*
X4641071Y-2739357D01*
X4626786Y-2710786D01*
X4612500Y-2667929D01*
X4598214Y-2596500D01*
X4598214Y-2539357D01*
X4612500Y-2467929D01*
X4626786Y-2425072D01*
X4641071Y-2396500D01*
X4669643Y-2353643D01*
X4683928Y-2339357D01*
X4783928Y-2410786D02*
X4798214Y-2396500D01*
X4826786Y-2382214D01*
X4898214Y-2382214D01*
X4926786Y-2396500D01*
X4941071Y-2410786D01*
X4955357Y-2439357D01*
X4955357Y-2467929D01*
X4941071Y-2510786D01*
X4769643Y-2682214D01*
X4955357Y-2682214D01*
X5312500Y-2682214D02*
X5312500Y-2382214D01*
X5441071Y-2682214D02*
X5441071Y-2525072D01*
X5426786Y-2496500D01*
X5398214Y-2482214D01*
X5355357Y-2482214D01*
X5326786Y-2496500D01*
X5312500Y-2510786D01*
X5626786Y-2682214D02*
X5598214Y-2667929D01*
X5583928Y-2653643D01*
X5569643Y-2625072D01*
X5569643Y-2539357D01*
X5583928Y-2510786D01*
X5598214Y-2496500D01*
X5626786Y-2482214D01*
X5669643Y-2482214D01*
X5698214Y-2496500D01*
X5712500Y-2510786D01*
X5726786Y-2539357D01*
X5726786Y-2625072D01*
X5712500Y-2653643D01*
X5698214Y-2667929D01*
X5669643Y-2682214D01*
X5626786Y-2682214D01*
X5898214Y-2682214D02*
X5869643Y-2667929D01*
X5855357Y-2639357D01*
X5855357Y-2382214D01*
X6126786Y-2667929D02*
X6098214Y-2682214D01*
X6041071Y-2682214D01*
X6012500Y-2667929D01*
X5998214Y-2639357D01*
X5998214Y-2525072D01*
X6012500Y-2496500D01*
X6041071Y-2482214D01*
X6098214Y-2482214D01*
X6126786Y-2496500D01*
X6141071Y-2525072D01*
X6141071Y-2553643D01*
X5998214Y-2582214D01*
X6255357Y-2667929D02*
X6283928Y-2682214D01*
X6341071Y-2682214D01*
X6369643Y-2667929D01*
X6383928Y-2639357D01*
X6383928Y-2625072D01*
X6369643Y-2596500D01*
X6341071Y-2582214D01*
X6298214Y-2582214D01*
X6269643Y-2567929D01*
X6255357Y-2539357D01*
X6255357Y-2525072D01*
X6269643Y-2496500D01*
X6298214Y-2482214D01*
X6341071Y-2482214D01*
X6369643Y-2496500D01*
X6483928Y-2796500D02*
X6498214Y-2782214D01*
X6526786Y-2739357D01*
X6541071Y-2710786D01*
X6555357Y-2667929D01*
X6569643Y-2596500D01*
X6569643Y-2539357D01*
X6555357Y-2467929D01*
X6541071Y-2425072D01*
X6526786Y-2396500D01*
X6498214Y-2353643D01*
X6483928Y-2339357D01*
X-532500Y-2677500D02*
X-2500Y-3207500D01*
X-2500Y-2677500D02*
X-532500Y-3207500D01*
X-2500Y-2942500D02*
G75*
G03*
X-2500Y-2942500I-265000J0D01*
G01*
X426786Y-2778214D02*
X283928Y-2778214D01*
X269643Y-2921071D01*
X283928Y-2906786D01*
X312500Y-2892500D01*
X383928Y-2892500D01*
X412500Y-2906786D01*
X426786Y-2921071D01*
X441071Y-2949643D01*
X441071Y-3021071D01*
X426786Y-3049643D01*
X412500Y-3063929D01*
X383928Y-3078214D01*
X312500Y-3078214D01*
X283928Y-3063929D01*
X269643Y-3049643D01*
X569643Y-3049643D02*
X583928Y-3063929D01*
X569643Y-3078214D01*
X555357Y-3063929D01*
X569643Y-3049643D01*
X569643Y-3078214D01*
X683928Y-2778214D02*
X869643Y-2778214D01*
X769643Y-2892500D01*
X812500Y-2892500D01*
X841071Y-2906786D01*
X855357Y-2921071D01*
X869643Y-2949643D01*
X869643Y-3021071D01*
X855357Y-3049643D01*
X841071Y-3063929D01*
X812500Y-3078214D01*
X726786Y-3078214D01*
X698214Y-3063929D01*
X683928Y-3049643D01*
X1055357Y-2778214D02*
X1083928Y-2778214D01*
X1112500Y-2792500D01*
X1126786Y-2806786D01*
X1141071Y-2835357D01*
X1155357Y-2892500D01*
X1155357Y-2963929D01*
X1141071Y-3021071D01*
X1126786Y-3049643D01*
X1112500Y-3063929D01*
X1083928Y-3078214D01*
X1055357Y-3078214D01*
X1026786Y-3063929D01*
X1012500Y-3049643D01*
X998214Y-3021071D01*
X983928Y-2963929D01*
X983928Y-2892500D01*
X998214Y-2835357D01*
X1012500Y-2806786D01*
X1026786Y-2792500D01*
X1055357Y-2778214D01*
X1283928Y-3078214D02*
X1283928Y-2878214D01*
X1283928Y-2906786D02*
X1298214Y-2892500D01*
X1326786Y-2878214D01*
X1369643Y-2878214D01*
X1398214Y-2892500D01*
X1412500Y-2921071D01*
X1412500Y-3078214D01*
X1412500Y-2921071D02*
X1426786Y-2892500D01*
X1455357Y-2878214D01*
X1498214Y-2878214D01*
X1526786Y-2892500D01*
X1541071Y-2921071D01*
X1541071Y-3078214D01*
X1683928Y-3078214D02*
X1683928Y-2878214D01*
X1683928Y-2906786D02*
X1698214Y-2892500D01*
X1726786Y-2878214D01*
X1769643Y-2878214D01*
X1798214Y-2892500D01*
X1812500Y-2921071D01*
X1812500Y-3078214D01*
X1812500Y-2921071D02*
X1826786Y-2892500D01*
X1855357Y-2878214D01*
X1898214Y-2878214D01*
X1926786Y-2892500D01*
X1941071Y-2921071D01*
X1941071Y-3078214D01*
X2526786Y-2763929D02*
X2269643Y-3149643D01*
X2912500Y-2778214D02*
X2941071Y-2778214D01*
X2969643Y-2792500D01*
X2983928Y-2806786D01*
X2998214Y-2835357D01*
X3012500Y-2892500D01*
X3012500Y-2963929D01*
X2998214Y-3021071D01*
X2983928Y-3049643D01*
X2969643Y-3063929D01*
X2941071Y-3078214D01*
X2912500Y-3078214D01*
X2883928Y-3063929D01*
X2869643Y-3049643D01*
X2855357Y-3021071D01*
X2841071Y-2963929D01*
X2841071Y-2892500D01*
X2855357Y-2835357D01*
X2869643Y-2806786D01*
X2883928Y-2792500D01*
X2912500Y-2778214D01*
X3141071Y-3049643D02*
X3155357Y-3063929D01*
X3141071Y-3078214D01*
X3126786Y-3063929D01*
X3141071Y-3049643D01*
X3141071Y-3078214D01*
X3269643Y-2806786D02*
X3283928Y-2792500D01*
X3312500Y-2778214D01*
X3383928Y-2778214D01*
X3412500Y-2792500D01*
X3426786Y-2806786D01*
X3441071Y-2835357D01*
X3441071Y-2863929D01*
X3426786Y-2906786D01*
X3255357Y-3078214D01*
X3441071Y-3078214D01*
X3626786Y-2778214D02*
X3655357Y-2778214D01*
X3683928Y-2792500D01*
X3698214Y-2806786D01*
X3712500Y-2835357D01*
X3726786Y-2892500D01*
X3726786Y-2963929D01*
X3712500Y-3021071D01*
X3698214Y-3049643D01*
X3683928Y-3063929D01*
X3655357Y-3078214D01*
X3626786Y-3078214D01*
X3598214Y-3063929D01*
X3583928Y-3049643D01*
X3569643Y-3021071D01*
X3555357Y-2963929D01*
X3555357Y-2892500D01*
X3569643Y-2835357D01*
X3583928Y-2806786D01*
X3598214Y-2792500D01*
X3626786Y-2778214D01*
X3869643Y-3078214D02*
X3926786Y-3078214D01*
X3955357Y-3063929D01*
X3969643Y-3049643D01*
X3998214Y-3006786D01*
X4012500Y-2949643D01*
X4012500Y-2835357D01*
X3998214Y-2806786D01*
X3983928Y-2792500D01*
X3955357Y-2778214D01*
X3898214Y-2778214D01*
X3869643Y-2792500D01*
X3855357Y-2806786D01*
X3841071Y-2835357D01*
X3841071Y-2906786D01*
X3855357Y-2935357D01*
X3869643Y-2949643D01*
X3898214Y-2963929D01*
X3955357Y-2963929D01*
X3983928Y-2949643D01*
X3998214Y-2935357D01*
X4012500Y-2906786D01*
X4126786Y-2778214D02*
X4126786Y-2835357D01*
X4241071Y-2778214D02*
X4241071Y-2835357D01*
X4683928Y-3192500D02*
X4669643Y-3178214D01*
X4641071Y-3135357D01*
X4626786Y-3106786D01*
X4612500Y-3063929D01*
X4598214Y-2992500D01*
X4598214Y-2935357D01*
X4612500Y-2863929D01*
X4626786Y-2821071D01*
X4641071Y-2792500D01*
X4669643Y-2749643D01*
X4683928Y-2735357D01*
X4926786Y-2878214D02*
X4926786Y-3078214D01*
X4855357Y-2763929D02*
X4783928Y-2978214D01*
X4969643Y-2978214D01*
X5312500Y-3078214D02*
X5312500Y-2778214D01*
X5441071Y-3078214D02*
X5441071Y-2921071D01*
X5426786Y-2892500D01*
X5398214Y-2878214D01*
X5355357Y-2878214D01*
X5326786Y-2892500D01*
X5312500Y-2906786D01*
X5626786Y-3078214D02*
X5598214Y-3063929D01*
X5583928Y-3049643D01*
X5569643Y-3021071D01*
X5569643Y-2935357D01*
X5583928Y-2906786D01*
X5598214Y-2892500D01*
X5626786Y-2878214D01*
X5669643Y-2878214D01*
X5698214Y-2892500D01*
X5712500Y-2906786D01*
X5726786Y-2935357D01*
X5726786Y-3021071D01*
X5712500Y-3049643D01*
X5698214Y-3063929D01*
X5669643Y-3078214D01*
X5626786Y-3078214D01*
X5898214Y-3078214D02*
X5869643Y-3063929D01*
X5855357Y-3035357D01*
X5855357Y-2778214D01*
X6126786Y-3063929D02*
X6098214Y-3078214D01*
X6041071Y-3078214D01*
X6012500Y-3063929D01*
X5998214Y-3035357D01*
X5998214Y-2921071D01*
X6012500Y-2892500D01*
X6041071Y-2878214D01*
X6098214Y-2878214D01*
X6126786Y-2892500D01*
X6141071Y-2921071D01*
X6141071Y-2949643D01*
X5998214Y-2978214D01*
X6255357Y-3063929D02*
X6283928Y-3078214D01*
X6341071Y-3078214D01*
X6369643Y-3063929D01*
X6383928Y-3035357D01*
X6383928Y-3021071D01*
X6369643Y-2992500D01*
X6341071Y-2978214D01*
X6298214Y-2978214D01*
X6269643Y-2963929D01*
X6255357Y-2935357D01*
X6255357Y-2921071D01*
X6269643Y-2892500D01*
X6298214Y-2878214D01*
X6341071Y-2878214D01*
X6369643Y-2892500D01*
X6483928Y-3192500D02*
X6498214Y-3178214D01*
X6526786Y-3135357D01*
X6541071Y-3106786D01*
X6555357Y-3063929D01*
X6569643Y-2992500D01*
X6569643Y-2935357D01*
X6555357Y-2863929D01*
X6541071Y-2821071D01*
X6526786Y-2792500D01*
X6498214Y-2749643D01*
X6483928Y-2735357D01*
M02*
