%TF.GenerationSoftware,KiCad,Pcbnew,(5.1.6)-1*%
%TF.CreationDate,2020-12-09T22:38:19+13:00*%
%TF.ProjectId,z-top-pcb,7a2d746f-702d-4706-9362-2e6b69636164,rev?*%
%TF.SameCoordinates,PX5734380PY6d01460*%
%TF.FileFunction,Copper,L2,Bot*%
%TF.FilePolarity,Positive*%
%FSLAX46Y46*%
G04 Gerber Fmt 4.6, Leading zero omitted, Abs format (unit mm)*
G04 Created by KiCad (PCBNEW (5.1.6)-1) date 2020-12-09 22:38:19*
%MOMM*%
%LPD*%
G01*
G04 APERTURE LIST*
%TA.AperFunction,ComponentPad*%
%ADD10O,1.700000X1.700000*%
%TD*%
%TA.AperFunction,ComponentPad*%
%ADD11R,1.700000X1.700000*%
%TD*%
%TA.AperFunction,ComponentPad*%
%ADD12O,1.600000X1.600000*%
%TD*%
%TA.AperFunction,ComponentPad*%
%ADD13R,1.600000X1.600000*%
%TD*%
%TA.AperFunction,ComponentPad*%
%ADD14O,2.200000X3.500000*%
%TD*%
%TA.AperFunction,ComponentPad*%
%ADD15O,1.500000X2.500000*%
%TD*%
%TA.AperFunction,ComponentPad*%
%ADD16R,1.500000X2.500000*%
%TD*%
%TA.AperFunction,ComponentPad*%
%ADD17C,2.000000*%
%TD*%
%TA.AperFunction,ComponentPad*%
%ADD18C,1.600000*%
%TD*%
%TA.AperFunction,ComponentPad*%
%ADD19C,8.500000*%
%TD*%
%TA.AperFunction,ComponentPad*%
%ADD20C,1.800000*%
%TD*%
%TA.AperFunction,ComponentPad*%
%ADD21R,1.800000X1.800000*%
%TD*%
%TA.AperFunction,Conductor*%
%ADD22C,1.000000*%
%TD*%
%TA.AperFunction,Conductor*%
%ADD23C,0.500000*%
%TD*%
G04 APERTURE END LIST*
D10*
%TO.P,J5,4*%
%TO.N,z-probe*%
X23114000Y33528000D03*
%TO.P,J5,3*%
%TO.N,fan-relay-12v*%
X25654000Y33528000D03*
%TO.P,J5,2*%
%TO.N,5v*%
X28194000Y33528000D03*
D11*
%TO.P,J5,1*%
%TO.N,GND*%
X30734000Y33528000D03*
%TD*%
D12*
%TO.P,U1,8*%
%TO.N,5v*%
X28768000Y27862000D03*
%TO.P,U1,4*%
%TO.N,GND*%
X21148000Y20242000D03*
%TO.P,U1,7*%
%TO.N,Net-(J7-Pad3)*%
X28768000Y25322000D03*
%TO.P,U1,3*%
%TO.N,LED-signal*%
X21148000Y22782000D03*
%TO.P,U1,6*%
%TO.N,Net-(J7-Pad2)*%
X28768000Y22782000D03*
%TO.P,U1,2*%
%TO.N,LED-mode-SW*%
X21148000Y25322000D03*
%TO.P,U1,5*%
%TO.N,Net-(J7-Pad1)*%
X28768000Y20242000D03*
D13*
%TO.P,U1,1*%
%TO.N,Net-(J8-Pad1)*%
X21148000Y27862000D03*
%TD*%
D14*
%TO.P,SW4,*%
%TO.N,*%
X29972000Y13462000D03*
X21772000Y13462000D03*
D15*
%TO.P,SW4,3*%
%TO.N,5v*%
X27872000Y13462000D03*
%TO.P,SW4,2*%
%TO.N,Net-(J2-Pad2)*%
X25872000Y13462000D03*
D16*
%TO.P,SW4,1*%
%TO.N,Net-(SW4-Pad1)*%
X23872000Y13462000D03*
%TD*%
D17*
%TO.P,SW1,1*%
%TO.N,LED-mode-SW*%
X9040000Y16002000D03*
%TO.P,SW1,2*%
%TO.N,5v*%
X9040000Y11502000D03*
%TO.P,SW1,1*%
%TO.N,LED-mode-SW*%
X2540000Y16002000D03*
%TO.P,SW1,2*%
%TO.N,5v*%
X2540000Y11502000D03*
%TD*%
D12*
%TO.P,R2,2*%
%TO.N,Net-(D2-Pad1)*%
X39116000Y18288000D03*
D18*
%TO.P,R2,1*%
%TO.N,5v*%
X39116000Y28448000D03*
%TD*%
D12*
%TO.P,R1,2*%
%TO.N,LED-mode-SW*%
X9144000Y18796000D03*
D18*
%TO.P,R1,1*%
%TO.N,GND*%
X9144000Y28956000D03*
%TD*%
D10*
%TO.P,J8,4*%
%TO.N,GND*%
X17272000Y20320000D03*
%TO.P,J8,3*%
%TO.N,LED-signal*%
X17272000Y22860000D03*
%TO.P,J8,2*%
%TO.N,LED-mode-SW*%
X17272000Y25400000D03*
D11*
%TO.P,J8,1*%
%TO.N,Net-(J8-Pad1)*%
X17272000Y27940000D03*
%TD*%
D10*
%TO.P,J7,4*%
%TO.N,5v*%
X32766000Y27940000D03*
%TO.P,J7,3*%
%TO.N,Net-(J7-Pad3)*%
X32766000Y25400000D03*
%TO.P,J7,2*%
%TO.N,Net-(J7-Pad2)*%
X32766000Y22860000D03*
D11*
%TO.P,J7,1*%
%TO.N,Net-(J7-Pad1)*%
X32766000Y20320000D03*
%TD*%
D10*
%TO.P,J6,2*%
%TO.N,GND*%
X32512000Y3556000D03*
D11*
%TO.P,J6,1*%
%TO.N,z-probe*%
X35052000Y3556000D03*
%TD*%
D10*
%TO.P,J4,2*%
%TO.N,fan-relay-12v*%
X15494000Y33782000D03*
D11*
%TO.P,J4,1*%
%TO.N,GND*%
X12954000Y33782000D03*
%TD*%
D10*
%TO.P,J3,2*%
%TO.N,Net-(J2-Pad2)*%
X26162000Y6096000D03*
D11*
%TO.P,J3,1*%
%TO.N,GND*%
X26162000Y3556000D03*
%TD*%
D10*
%TO.P,J2,2*%
%TO.N,Net-(J2-Pad2)*%
X21590000Y6096000D03*
D11*
%TO.P,J2,1*%
%TO.N,GND*%
X21590000Y3556000D03*
%TD*%
D10*
%TO.P,J1,3*%
%TO.N,LED-signal*%
X14478000Y8636000D03*
%TO.P,J1,2*%
%TO.N,5v*%
X14478000Y6096000D03*
D11*
%TO.P,J1,1*%
%TO.N,GND*%
X14478000Y3556000D03*
%TD*%
D19*
%TO.P,H4,1*%
%TO.N,Net-(H4-Pad1)*%
X4064000Y4318000D03*
%TD*%
%TO.P,H3,1*%
%TO.N,Net-(H3-Pad1)*%
X43942000Y4064000D03*
%TD*%
%TO.P,H2,1*%
%TO.N,Net-(H2-Pad1)*%
X4064000Y33782000D03*
%TD*%
%TO.P,H1,1*%
%TO.N,Net-(H1-Pad1)*%
X43688000Y33782000D03*
%TD*%
D20*
%TO.P,D2,2*%
%TO.N,z-probe*%
X38354000Y12446000D03*
D21*
%TO.P,D2,1*%
%TO.N,Net-(D2-Pad1)*%
X40894000Y12446000D03*
%TD*%
D22*
%TO.N,Net-(J2-Pad2)*%
X25872000Y6386000D02*
X26162000Y6096000D01*
X25872000Y13462000D02*
X25872000Y6386000D01*
X21590000Y6096000D02*
X26162000Y6096000D01*
%TO.N,GND*%
X17350000Y20242000D02*
X17272000Y20320000D01*
X21148000Y20242000D02*
X17350000Y20242000D01*
X32091998Y3556000D02*
X32512000Y3556000D01*
X14478000Y3556000D02*
X32091998Y3556000D01*
X30734000Y33528000D02*
X30734000Y32512000D01*
X30734000Y32512000D02*
X28448000Y30226000D01*
X28448000Y30226000D02*
X27686000Y30226000D01*
X24638000Y27178000D02*
X24638000Y21590000D01*
X23290000Y20242000D02*
X21148000Y20242000D01*
X24638000Y21590000D02*
X23290000Y20242000D01*
X9144000Y28956000D02*
X13208000Y28956000D01*
X22733000Y29845000D02*
X25019000Y27559000D01*
X14097000Y29845000D02*
X22733000Y29845000D01*
X13208000Y28956000D02*
X14097000Y29845000D01*
X27686000Y30226000D02*
X25019000Y27559000D01*
X25019000Y27559000D02*
X24638000Y27178000D01*
X12954000Y30988000D02*
X14097000Y29845000D01*
X12954000Y33782000D02*
X12954000Y30988000D01*
X14478000Y3556000D02*
X12700000Y3556000D01*
X12700000Y3556000D02*
X6350000Y9906000D01*
X6350000Y26162000D02*
X9144000Y28956000D01*
X6350000Y9906000D02*
X6350000Y26162000D01*
%TO.N,fan-relay-12v*%
X25654000Y33528000D02*
X25654000Y32004000D01*
X25654000Y32004000D02*
X25146000Y31496000D01*
X17780000Y31496000D02*
X15494000Y33782000D01*
X25146000Y31496000D02*
X17780000Y31496000D01*
%TO.N,5v*%
X28846000Y27940000D02*
X28768000Y27862000D01*
X32766000Y27940000D02*
X28846000Y27940000D01*
X27872000Y15816000D02*
X27872000Y13462000D01*
X26416000Y17272000D02*
X27872000Y15816000D01*
X26416000Y26670000D02*
X26416000Y17272000D01*
X28768000Y27862000D02*
X27608000Y27862000D01*
X27608000Y27862000D02*
X26416000Y26670000D01*
X26416000Y17272000D02*
X20066000Y17272000D01*
X20066000Y17272000D02*
X18288000Y15494000D01*
X18288000Y15494000D02*
X18288000Y7366000D01*
X17018000Y6096000D02*
X14478000Y6096000D01*
X18288000Y7366000D02*
X17018000Y6096000D01*
X14478000Y6096000D02*
X12446000Y6096000D01*
X9040000Y9502000D02*
X9040000Y11502000D01*
X12446000Y6096000D02*
X9040000Y9502000D01*
X34036000Y29210000D02*
X32766000Y27940000D01*
X28194000Y34798000D02*
X29210000Y35814000D01*
X28194000Y33528000D02*
X28194000Y34798000D01*
X29210000Y35814000D02*
X33274000Y35814000D01*
X33274000Y35814000D02*
X34036000Y35052000D01*
X34036000Y35052000D02*
X34036000Y29210000D01*
D23*
%TO.N,z-probe*%
X23114000Y33528000D02*
X23114000Y35560000D01*
X23114000Y35560000D02*
X24638000Y37084000D01*
X35052000Y3556000D02*
X35052000Y17018000D01*
X35052000Y17018000D02*
X36322000Y18288000D01*
X36322000Y35560000D02*
X34798000Y37084000D01*
X36322000Y18288000D02*
X36322000Y35560000D01*
X24638000Y37084000D02*
X34798000Y37084000D01*
D22*
%TO.N,LED-mode-SW*%
X17350000Y25322000D02*
X17272000Y25400000D01*
X21148000Y25322000D02*
X17350000Y25322000D01*
X15748000Y25400000D02*
X17272000Y25400000D01*
X9144000Y18796000D02*
X15748000Y25400000D01*
X9144000Y16106000D02*
X9040000Y16002000D01*
X9144000Y18796000D02*
X9144000Y16106000D01*
%TO.N,LED-signal*%
X17350000Y22782000D02*
X17272000Y22860000D01*
X21148000Y22782000D02*
X17350000Y22782000D01*
X14478000Y8636000D02*
X14478000Y21336000D01*
X16002000Y22860000D02*
X17272000Y22860000D01*
X14478000Y21336000D02*
X16002000Y22860000D01*
%TO.N,Net-(J7-Pad3)*%
X28846000Y25400000D02*
X28768000Y25322000D01*
X32766000Y25400000D02*
X28846000Y25400000D01*
%TO.N,Net-(J8-Pad1)*%
X17350000Y27862000D02*
X17272000Y27940000D01*
X21148000Y27862000D02*
X17350000Y27862000D01*
%TO.N,Net-(J7-Pad2)*%
X28846000Y22860000D02*
X28768000Y22782000D01*
X32766000Y22860000D02*
X28846000Y22860000D01*
%TO.N,Net-(J7-Pad1)*%
X28846000Y20320000D02*
X28768000Y20242000D01*
X32766000Y20320000D02*
X28846000Y20320000D01*
%TD*%
M02*
